<?xml version="1.0" standalone="no"?>
<!DOCTYPE svg PUBLIC "-//W3C//DTD SVG 20010904//EN"
 "http://www.w3.org/TR/2001/REC-SVG-20010904/DTD/svg10.dtd">
<svg version="1.0" xmlns="http://www.w3.org/2000/svg"
 width="700.000000pt" height="700.000000pt" viewBox="0 0 700.000000 700.000000"
 preserveAspectRatio="xMidYMid meet">
<metadata>
Created by potrace 1.14, written by Peter Selinger 2001-2017
</metadata>
<g transform="translate(0.000000,700.000000) scale(0.100000,-0.100000)"
fill="#000000" stroke="none">
<path d="M425 6980 c-130 -35 -252 -121 -323 -228 -90 -136 -100 -188 -102
-503 l-1 -249 1903 0 c1823 -1 2037 -2 2138 -15 115 -13 146 -18 165 -21 11
-3 36 -7 55 -10 57 -9 219 -51 300 -77 205 -68 393 -173 539 -302 256 -226
404 -523 450 -900 9 -74 7 -339 -3 -390 -38 -195 -102 -341 -212 -485 -47 -62
-146 -164 -181 -187 l-23 -15 44 -32 c91 -65 214 -193 287 -301 121 -179 205
-396 235 -610 5 -33 4 -247 0 -280 -3 -16 -8 -55 -11 -85 -4 -30 -8 -62 -10
-70 -2 -8 -6 -31 -9 -50 -23 -125 -88 -300 -153 -413 -152 -260 -401 -463
-721 -588 -88 -34 -73 -30 -217 -69 -108 -29 -138 -36 -204 -46 -19 -2 -37 -6
-40 -8 -3 -3 -38 -7 -76 -11 -39 -4 -72 -9 -75 -10 -17 -10 -242 -19 -484 -19
l-280 -1 0 573 c-1 372 3 576 9 580 6 4 134 7 285 8 313 1 368 9 505 75 95 46
164 110 203 188 24 51 27 66 27 166 0 93 -4 118 -23 159 -64 141 -181 219
-378 252 -41 7 -1470 13 -1491 6 -10 -3 -13 -214 -13 -1008 l0 -1004 -620 0
c-489 0 -620 3 -621 13 -1 16 -1 3099 0 3112 1 7 445 9 1313 8 1401 -1 1392
-2 1523 48 74 27 145 97 164 159 13 43 16 168 5 244 -18 145 -134 233 -344
263 -25 3 -868 5 -1875 4 -1007 0 -1887 -1 -1958 -1 l-127 0 1 -2172 c1 -1756
3 -2185 14 -2234 23 -105 71 -191 156 -274 82 -82 151 -122 258 -151 62 -17
227 -18 3061 -18 2558 -1 3005 1 3062 14 206 43 369 201 429 415 18 62 18 180
19 3050 0 1994 -4 3007 -10 3050 -34 214 -220 408 -435 455 -49 11 -622 13
-3060 14 -2908 0 -3002 -1 -3070 -19z"/>
</g>
</svg>
